<?xml version="1.0" encoding="UTF-8"?>
<svg width="1200pt" height="1200pt" version="1.1" viewBox="0 0 1200 1200" xmlns="http://www.w3.org/2000/svg">
 <path d="m975.97 385.71c-7.0195-13.43-1.8008-30.023 11.629-37.043 13.465-7.0195 30.023-1.8008 37.043 11.629 19.402 37.008 34.523 76.5 44.676 117.83 9.8984 40.355 15.191 82.367 15.191 125.39 0 144.83-58.715 275.94-153.61 370.88-94.934 94.934-226.05 153.61-370.88 153.61s-275.94-58.715-370.88-153.61c-94.934-94.934-153.61-226.05-153.61-370.88s58.715-275.94 153.61-370.88c94.934-94.934 226.05-153.61 370.88-153.61 45.145 0 89.246 5.7969 131.55 16.738 43.379 11.195 84.602 27.828 122.87 49.105 13.285 7.3789 18.035 24.121 10.656 37.367-7.3789 13.25-24.121 18.035-37.367 10.656-34.238-19.043-71.137-33.914-109.95-43.957-37.367-9.6836-76.824-14.797-117.72-14.797-129.6 0-246.96 52.523-331.89 137.48-84.926 84.926-137.48 202.29-137.48 331.89 0 129.6 52.523 246.96 137.48 331.89 84.926 84.926 202.29 137.48 331.89 137.48 129.6 0 246.96-52.523 331.89-137.48 84.926-84.926 137.48-202.29 137.48-331.89 0-38.879-4.6797-76.5-13.465-112.29-9.1445-37.223-22.68-72.613-39.926-105.55zm-690.99 205.6c57.383 56.629 131.87 136.8 200.95 233.39 15.914 22.285 40.141 33.875 67.465 32.328 27.324-1.5469 50.078-15.805 63.398-39.707 115.71-207.9 369.65-637.71 547.71-745.28 0 0-314.5 46.656-618.59 580.69l-148.14-168.02c-70.199-79.598-188.32 32.078-112.79 106.63z" fill="#70d258"/>
</svg>
