<?xml version="1.0" encoding="UTF-8"?>
<svg width="1200pt" height="1200pt" version="1.1" viewBox="0 0 1200 1200" xmlns="http://www.w3.org/2000/svg">
 <g fill="#ff001b">
  <path d="m737.4 782.4c-11.398 0-23.102-4.5-31.801-13.199l-274.8-274.8c-17.699-17.699-17.699-46.199 0-63.602 17.699-17.699 46.199-17.699 63.602 0l274.8 274.8c17.699 17.699 17.699 46.199 0 63.602-8.6992 8.6992-20.398 13.199-31.801 13.199z"/>
  <path d="m600 1068.3c-258.3 0-468.3-210-468.3-468.3s210-468.3 468.3-468.3 468.3 210 468.3 468.3-210 468.3-468.3 468.3zm0-846.6c-208.5 0-378.3 169.8-378.3 378.3s169.8 378.3 378.3 378.3 378.3-169.8 378.3-378.3-169.8-378.3-378.3-378.3z"/>
  <path d="m462.6 782.4c-11.398 0-23.102-4.5-31.801-13.199-17.699-17.699-17.699-46.199 0-63.602l274.8-274.8c17.699-17.699 46.199-17.699 63.602 0 17.699 17.699 17.699 46.199 0 63.602l-274.8 274.8c-8.7031 8.6992-20.402 13.199-31.801 13.199z"/>
 </g>
</svg>
